<svg id="visual" viewBox="0 0 450 900" width="450" height="900" xmlns="http://www.w3.org/2000/svg" xmlns:xlink="http://www.w3.org/1999/xlink" version="1.1"><rect x="0" y="0" width="450" height="900" fill="#080219"></rect><path d="M0 204L10.7 205.5C21.3 207 42.7 210 64.2 208C85.7 206 107.3 199 128.8 194.3C150.3 189.7 171.7 187.3 193 189.8C214.3 192.3 235.7 199.7 257 202.7C278.3 205.7 299.7 204.3 321.2 207C342.7 209.7 364.3 216.3 385.8 211.7C407.3 207 428.7 191 439.3 183L450 175L450 0L439.3 0C428.7 0 407.3 0 385.8 0C364.3 0 342.7 0 321.2 0C299.7 0 278.3 0 257 0C235.7 0 214.3 0 193 0C171.7 0 150.3 0 128.8 0C107.3 0 85.7 0 64.2 0C42.7 0 21.3 0 10.7 0L0 0Z" fill="#0c0227"></path><path d="M0 169L10.7 168.3C21.3 167.7 42.7 166.3 64.2 165.5C85.7 164.7 107.3 164.3 128.8 168.7C150.3 173 171.7 182 193 184C214.3 186 235.7 181 257 174.3C278.3 167.7 299.7 159.3 321.2 156.8C342.7 154.3 364.3 157.7 385.8 157C407.3 156.3 428.7 151.7 439.3 149.3L450 147L450 0L439.3 0C428.7 0 407.3 0 385.8 0C364.3 0 342.7 0 321.2 0C299.7 0 278.3 0 257 0C235.7 0 214.3 0 193 0C171.7 0 150.3 0 128.8 0C107.3 0 85.7 0 64.2 0C42.7 0 21.3 0 10.7 0L0 0Z" fill="#0d0736"></path><path d="M0 149L10.7 144.7C21.3 140.3 42.7 131.7 64.2 125.5C85.7 119.3 107.3 115.7 128.8 119.5C150.3 123.3 171.7 134.7 193 135.8C214.3 137 235.7 128 257 122C278.3 116 299.7 113 321.2 113C342.7 113 364.3 116 385.8 122.8C407.3 129.7 428.7 140.3 439.3 145.7L450 151L450 0L439.3 0C428.7 0 407.3 0 385.8 0C364.3 0 342.7 0 321.2 0C299.7 0 278.3 0 257 0C235.7 0 214.3 0 193 0C171.7 0 150.3 0 128.8 0C107.3 0 85.7 0 64.2 0C42.7 0 21.3 0 10.7 0L0 0Z" fill="#0f0a46"></path><path d="M0 107L10.7 104.7C21.3 102.3 42.7 97.7 64.2 96.2C85.7 94.7 107.3 96.3 128.8 97C150.3 97.7 171.7 97.3 193 94.7C214.3 92 235.7 87 257 87.8C278.3 88.7 299.7 95.3 321.2 99.8C342.7 104.3 364.3 106.7 385.8 106.2C407.3 105.7 428.7 102.3 439.3 100.7L450 99L450 0L439.3 0C428.7 0 407.3 0 385.8 0C364.3 0 342.7 0 321.2 0C299.7 0 278.3 0 257 0C235.7 0 214.3 0 193 0C171.7 0 150.3 0 128.8 0C107.3 0 85.7 0 64.2 0C42.7 0 21.3 0 10.7 0L0 0Z" fill="#160956"></path><path d="M0 58L10.7 56.3C21.3 54.7 42.7 51.3 64.2 53.5C85.7 55.7 107.3 63.3 128.8 66C150.3 68.7 171.7 66.3 193 63.8C214.3 61.3 235.7 58.7 257 58.2C278.3 57.7 299.7 59.3 321.2 58C342.7 56.7 364.3 52.3 385.8 51.2C407.3 50 428.7 52 439.3 53L450 54L450 0L439.3 0C428.7 0 407.3 0 385.8 0C364.3 0 342.7 0 321.2 0C299.7 0 278.3 0 257 0C235.7 0 214.3 0 193 0C171.7 0 150.3 0 128.8 0C107.3 0 85.7 0 64.2 0C42.7 0 21.3 0 10.7 0L0 0Z" fill="#1f0565"></path></svg>