<svg id="visual" viewBox="0 0 960 540" width="960" height="540" xmlns="http://www.w3.org/2000/svg" xmlns:xlink="http://www.w3.org/1999/xlink" version="1.1"><rect x="0" y="0" width="960" height="540" fill="#080219"></rect><path d="M0 184L22.8 185.2C45.7 186.3 91.3 188.7 137 186.7C182.7 184.7 228.3 178.3 274 174.2C319.7 170 365.3 168 411.2 170.3C457 172.7 503 179.3 548.8 182.2C594.7 185 640.3 184 686 186.5C731.7 189 777.3 195 823 190.7C868.7 186.3 914.3 171.7 937.2 164.3L960 157L960 0L937.2 0C914.3 0 868.7 0 823 0C777.3 0 731.7 0 686 0C640.3 0 594.7 0 548.8 0C503 0 457 0 411.2 0C365.3 0 319.7 0 274 0C228.3 0 182.7 0 137 0C91.3 0 45.7 0 22.8 0L0 0Z" fill="#0c0227"></path><path d="M0 152L22.8 151.3C45.7 150.7 91.3 149.3 137 148.7C182.7 148 228.3 148 274 152C319.7 156 365.3 164 411.2 165.7C457 167.3 503 162.7 548.8 156.7C594.7 150.7 640.3 143.3 686 141.2C731.7 139 777.3 142 823 141.3C868.7 140.7 914.3 136.3 937.2 134.2L960 132L960 0L937.2 0C914.3 0 868.7 0 823 0C777.3 0 731.7 0 686 0C640.3 0 594.7 0 548.8 0C503 0 457 0 411.2 0C365.3 0 319.7 0 274 0C228.3 0 182.7 0 137 0C91.3 0 45.7 0 22.8 0L0 0Z" fill="#0d0736"></path><path d="M0 134L22.8 130.2C45.7 126.3 91.3 118.7 137 113.2C182.7 107.7 228.3 104.3 274 107.8C319.7 111.3 365.3 121.7 411.2 122.7C457 123.7 503 115.3 548.8 109.8C594.7 104.3 640.3 101.7 686 101.7C731.7 101.7 777.3 104.3 823 110.5C868.7 116.7 914.3 126.3 937.2 131.2L960 136L960 0L937.2 0C914.3 0 868.7 0 823 0C777.3 0 731.7 0 686 0C640.3 0 594.7 0 548.8 0C503 0 457 0 411.2 0C365.3 0 319.7 0 274 0C228.3 0 182.7 0 137 0C91.3 0 45.7 0 22.8 0L0 0Z" fill="#0f0a46"></path><path d="M0 96L22.8 94C45.7 92 91.3 88 137 86.8C182.7 85.7 228.3 87.3 274 87.8C319.7 88.3 365.3 87.7 411.2 85.2C457 82.7 503 78.3 548.8 79.2C594.7 80 640.3 86 686 90C731.7 94 777.3 96 823 95.5C868.7 95 914.3 92 937.2 90.5L960 89L960 0L937.2 0C914.3 0 868.7 0 823 0C777.3 0 731.7 0 686 0C640.3 0 594.7 0 548.8 0C503 0 457 0 411.2 0C365.3 0 319.7 0 274 0C228.3 0 182.7 0 137 0C91.3 0 45.7 0 22.8 0L0 0Z" fill="#160956"></path><path d="M0 52L22.8 50.5C45.7 49 91.3 46 137 48C182.7 50 228.3 57 274 59.3C319.7 61.7 365.3 59.3 411.2 57.2C457 55 503 53 548.8 52.7C594.7 52.3 640.3 53.7 686 52.3C731.7 51 777.3 47 823 45.8C868.7 44.7 914.3 46.3 937.2 47.2L960 48L960 0L937.2 0C914.3 0 868.7 0 823 0C777.3 0 731.7 0 686 0C640.3 0 594.7 0 548.8 0C503 0 457 0 411.2 0C365.3 0 319.7 0 274 0C228.3 0 182.7 0 137 0C91.3 0 45.7 0 22.8 0L0 0Z" fill="#1f0565"></path></svg>